<svg 
  xmlns="http://www.w3.org/2000/svg" 
  width="24" 
  height="24" 
  viewBox="0 0 24 24" 
  fill="none" 
  stroke="currentColor" 
  stroke-width="1.5" 
  stroke-linecap="round" 
  stroke-linejoin="round"
>
  <path stroke="none" d="M0 0h24v24H0z" fill="none"/>
  
  <path d="M3 5a2 2 0 0 1 2 -2h14a2 2 0 0 1 2 2v14a2 2 0 0 1 -2 2h-14a2 2 0 0 1 -2 -2l0 -14" />
  
  <path d="M6 7a1 1 0 1 0 2 0a1 1 0 1 0 -2 0" />
  <path d="M11 12a1 1 0 1 0 2 0a1 1 0 1 0 -2 0" />
  <path d="M16 17a1 1 0 1 0 2 0a1 1 0 1 0 -2 0" />
</svg>
